<?xml version="1.0" standalone="no"?>
<!DOCTYPE svg PUBLIC "-//W3C//DTD SVG 20010904//EN"
 "http://www.w3.org/TR/2001/REC-SVG-20010904/DTD/svg10.dtd">
<svg version="1.0" xmlns="http://www.w3.org/2000/svg"
 width="260.000000pt" height="260.000000pt" viewBox="0 0 260.000000 260.000000"
 preserveAspectRatio="xMidYMid meet">
<metadata>
Created by potrace 1.14, written by Peter Selinger 2001-2017
</metadata>
<g transform="translate(0.000000,260.000000) scale(0.100000,-0.100000)"
fill="#000000" stroke="none">
<path d="M1221 2284 c0 -11 3 -14 6 -6 3 7 2 16 -1 19 -3 4 -6 -2 -5 -13z"/>
<path d="M1265 2292 c-11 -2 -25 -12 -32 -21 -10 -14 -12 -14 -17 -1 -6 15
-76 26 -76 12 0 -4 -19 -8 -41 -10 -23 -1 -50 -7 -60 -13 -11 -5 -24 -7 -29
-4 -6 3 -10 2 -10 -4 0 -5 -9 -8 -20 -6 -11 2 -22 0 -25 -6 -4 -5 -15 -9 -25
-9 -10 0 -22 -9 -25 -20 -3 -11 -11 -20 -16 -20 -6 0 -7 6 -3 13 6 9 5 9 -8 0
-8 -7 -18 -10 -21 -6 -4 3 -7 -1 -7 -10 0 -10 0 -20 0 -24 0 -15 25 -9 63 14
20 13 37 20 37 17 0 -4 6 -1 13 5 8 6 17 8 20 4 4 -3 7 -2 7 4 0 5 6 10 13 11
35 3 52 11 51 23 -1 9 10 15 29 16 19 0 25 -2 16 -7 -7 -5 -17 -6 -21 -4 -4 3
-8 1 -8 -4 0 -6 11 -9 24 -8 13 0 23 3 21 6 -11 18 333 15 362 -3 13 -8 35 17
25 29 -4 4 0 3 8 -3 8 -6 23 -9 33 -8 9 2 15 -1 12 -5 -3 -5 -14 -7 -25 -5
-11 2 -20 0 -20 -6 0 -8 30 -14 53 -10 4 0 7 -3 7 -7 0 -5 6 -9 13 -10 25 -1
56 -11 85 -26 16 -8 32 -12 36 -9 3 4 6 1 6 -6 0 -8 5 -9 18 -2 20 11 52 -2
33 -13 -6 -4 -11 -2 -11 4 0 6 -5 8 -11 5 -6 -5 -4 -12 8 -20 20 -15 37 -10
27 7 -5 7 -2 8 5 4 7 -5 10 -15 7 -23 -3 -8 -2 -12 3 -9 5 3 12 -1 15 -10 3
-8 10 -13 15 -10 5 3 12 -1 15 -10 3 -8 10 -12 16 -9 6 4 7 11 4 17 -4 7 -2 8
4 4 6 -4 9 -13 6 -21 -6 -15 31 -39 45 -30 14 8 42 -6 35 -17 -4 -6 -10 -5
-15 3 -4 7 -11 10 -15 7 -3 -4 21 -34 55 -68 33 -33 61 -62 61 -65 0 -3 2 -4
4 -2 6 3 56 -71 56 -83 0 -6 4 -10 10 -10 9 0 74 -115 75 -134 0 -13 34 -16
41 -4 4 6 1 16 -7 22 -14 11 -21 29 -22 53 0 7 -4 10 -9 7 -4 -3 -8 4 -8 14 0
11 -7 25 -15 32 -8 7 -12 17 -8 23 3 6 1 7 -5 3 -7 -4 -12 -2 -12 3 0 6 0 13
0 16 0 3 -9 15 -19 27 -11 13 -36 43 -57 68 -22 27 -43 44 -53 42 -9 -2 -13
-1 -9 3 13 13 -11 45 -29 38 -9 -4 -14 -2 -10 4 7 11 -28 45 -37 36 -3 -4 -6
-1 -6 5 0 7 -7 12 -16 12 -8 0 -12 5 -9 10 3 6 2 10 -4 10 -6 0 -22 11 -36 26
-14 14 -29 23 -34 20 -4 -3 -17 3 -27 12 -23 22 -50 33 -58 24 -11 -10 -37
-11 -30 -1 3 5 10 7 15 4 5 -4 9 -2 9 3 0 11 -38 25 -59 22 -8 -1 -10 4 -5 12
4 7 4 10 -1 6 -4 -4 -15 -2 -23 5 -10 8 -13 8 -9 1 9 -15 -20 -26 -40 -15 -11
6 -12 10 -4 15 6 4 11 2 11 -3 0 -6 4 -11 8 -11 5 0 9 6 9 14 0 8 -8 13 -19
11 -10 -2 -18 1 -18 6 0 6 -6 9 -12 6 -7 -2 -24 0 -37 5 -18 6 -27 4 -38 -9
-14 -17 -14 -17 -9 0 3 11 2 16 -4 12 -6 -3 -10 -1 -10 4 0 6 -5 11 -11 11 -5
0 -7 -4 -4 -10 7 -11 5 -12 -40 -15 -31 -2 -58 12 -50 25 3 5 -3 7 -12 5 -10
-1 -17 -8 -15 -14 1 -6 -1 -11 -5 -12 -40 -5 -64 -5 -68 1 -3 4 9 6 25 5 17
-1 30 1 30 5 0 11 -22 17 -45 12z m84 -15 c8 -10 7 -14 -2 -14 -8 0 -14 6 -14
14 0 7 1 13 2 13 2 0 8 -6 14 -13z m-140 -13 c3 -4 -2 -4 -11 -1 -10 3 -20 2
-23 -3 -6 -10 -52 -6 -63 5 -4 5 0 6 9 3 9 -4 22 -2 29 2 14 9 49 5 59 -6z
m246 -4 c-3 -5 -12 -10 -18 -10 -7 0 -6 4 3 10 19 12 23 12 15 0z m-465 -31
c0 -6 -23 -19 -40 -23 -3 -1 -15 -8 -28 -15 -22 -12 -23 -11 -12 9 6 11 15 18
19 15 5 -2 14 1 20 8 11 14 41 19 41 6z m679 -15 c5 4 12 2 15 -3 12 -18 -12
-21 -31 -3 -10 9 -13 13 -6 9 6 -5 17 -6 22 -3z m-791 -40 c-1 -5 -9 -9 -16
-10 -10 -2 -11 1 -1 12 12 14 24 13 17 -2z m937 -35 c-4 -6 0 -9 10 -7 10 2
20 -3 23 -10 5 -15 -29 -13 -40 3 -7 9 -2 25 8 25 3 0 2 -5 -1 -11z m80 -69
c3 -6 -1 -7 -9 -4 -18 7 -21 14 -7 14 6 0 13 -4 16 -10z m79 -52 c-3 -4 0 -8
5 -8 6 0 10 -6 9 -12 -2 -7 5 -12 15 -11 10 0 16 -1 13 -4 -3 -3 5 -14 17 -24
29 -22 78 -92 81 -115 1 -9 10 -23 20 -30 10 -7 18 -18 20 -26 1 -7 6 -20 11
-28 5 -8 10 -22 12 -30 1 -8 9 -20 18 -26 14 -10 14 -12 0 -17 -8 -4 -14 -3
-13 1 1 4 -3 17 -10 30 -7 12 -9 22 -5 22 4 0 2 4 -5 9 -7 4 -14 15 -16 24 -1
9 -13 28 -26 42 -13 14 -20 25 -16 25 5 0 -2 8 -13 18 -19 15 -27 33 -30 66
-1 5 -9 2 -18 -5 -10 -9 -14 -9 -10 -2 5 7 -1 17 -14 23 -11 7 -18 14 -16 17
3 2 -10 19 -29 37 -28 26 -30 32 -15 32 11 0 17 -4 15 -8z"/>
<path d="M2011 1957 c2 -1 13 -9 24 -17 19 -14 19 -14 6 3 -7 9 -18 17 -24 17
-6 0 -8 -1 -6 -3z"/>
<path d="M2080 1880 c6 -11 13 -20 16 -20 2 0 0 9 -6 20 -6 11 -13 20 -16 20
-2 0 0 -9 6 -20z"/>
<path d="M1370 2287 c0 -8 11 -13 30 -13 17 0 30 4 30 9 0 5 -6 7 -12 4 -7 -2
-21 0 -30 5 -13 6 -18 5 -18 -5z"/>
<path d="M816 2165 c5 -11 2 -13 -10 -9 -13 5 -46 -13 -96 -53 -74 -59 -100
-83 -92 -83 6 0 18 7 26 16 10 9 16 11 16 4 0 -7 -13 -17 -30 -23 -16 -6 -30
-15 -30 -20 0 -4 4 -6 9 -2 5 3 12 1 15 -4 7 -11 -13 -9 -32 3 -8 5 -12 3 -10
-6 2 -7 -3 -12 -9 -11 -7 2 -13 -2 -13 -7 0 -6 -12 -22 -27 -36 l-27 -25 27 5
c16 3 25 1 22 -5 -4 -5 -11 -7 -16 -4 -5 4 -9 1 -9 -6 0 -7 -3 -9 -6 -6 -13
12 -43 -13 -37 -30 4 -10 2 -14 -5 -9 -11 7 -44 -32 -37 -45 3 -4 -2 -10 -11
-13 -9 -4 -14 -9 -11 -13 4 -3 -3 -19 -15 -36 -12 -17 -16 -27 -9 -22 9 5 12
3 9 -6 -3 -8 -11 -13 -17 -11 -6 1 -11 -6 -11 -16 0 -10 -5 -23 -12 -30 -9 -9
-9 -15 1 -24 9 -8 11 -8 8 -2 -4 7 0 15 8 18 13 4 13 2 5 -14 -6 -11 -16 -17
-25 -14 -8 4 -15 1 -15 -5 0 -6 5 -11 10 -11 6 0 10 -5 10 -11 0 -5 -5 -7 -10
-4 -12 7 -29 -33 -24 -57 1 -10 -2 -18 -8 -18 -5 0 -8 -7 -4 -15 3 -8 0 -15
-7 -15 -7 -1 -1 -7 13 -16 20 -11 21 -14 6 -12 -16 2 -20 -3 -21 -27 0 -16 -5
-36 -9 -44 -6 -10 -5 -12 2 -7 7 4 12 2 12 -3 0 -6 -5 -11 -10 -11 -7 0 -7 -6
0 -20 7 -13 7 -20 1 -20 -6 0 -9 -22 -8 -49 1 -32 6 -47 14 -44 6 3 9 11 7 18
-3 7 -1 15 4 19 13 8 8 -30 -7 -48 -7 -8 -10 -20 -6 -26 3 -5 0 -10 -7 -10 -9
0 -9 -3 2 -10 24 -15 35 6 36 70 1 57 -7 73 -22 48 -5 -7 -3 -8 6 -3 9 5 11 4
6 -4 -10 -16 -25 -5 -21 17 1 9 9 16 17 14 11 -1 16 6 16 23 0 14 -4 25 -9 25
-4 0 -6 -9 -4 -20 2 -11 0 -18 -5 -15 -4 3 -7 13 -5 23 2 9 4 21 4 25 1 5 6 5
11 2 16 -10 7 18 -10 32 -13 10 -12 12 6 8 19 -3 21 1 19 28 -2 18 1 37 7 44
5 6 11 25 12 42 1 17 5 33 8 37 4 3 4 13 1 22 -5 11 -3 13 7 7 9 -5 11 -4 6 3
-4 6 0 24 8 40 8 16 12 32 9 36 -4 3 -2 6 4 6 17 0 32 44 21 63 -6 11 -5 17 2
17 5 0 10 -6 10 -12 1 -15 18 11 18 26 0 5 6 13 14 17 10 7 10 9 1 9 -7 0 -13
5 -13 10 0 6 3 9 8 9 16 -3 35 1 30 6 -3 3 6 19 21 34 54 58 80 91 73 92 -4 0
3 4 15 9 16 7 21 14 16 26 -4 12 -3 15 5 10 7 -4 12 -2 12 4 0 6 4 9 8 6 5 -3
18 5 30 17 11 12 36 33 55 47 20 14 38 35 42 48 5 19 9 21 25 12 23 -12 22
-13 25 18 1 13 -3 22 -11 22 -8 0 -11 -6 -8 -15z m-45 -43 c-19 -35 -51 -57
-93 -61 -4 -1 -5 -7 -2 -15 3 -8 1 -16 -4 -20 -5 -3 -8 4 -7 16 1 16 35 50 35
34 0 -2 15 11 34 30 37 37 52 44 37 16z m-181 -162 c-6 -11 -20 -24 -33 -30
-20 -10 -20 -10 -5 3 10 8 14 18 10 22 -4 5 -2 5 4 2 7 -4 14 0 18 8 3 8 8 15
11 15 3 0 1 -9 -5 -20z m-50 -76 c0 -2 -9 -8 -19 -14 -14 -7 -22 -7 -27 2 -4
7 -3 8 4 4 7 -4 12 -3 12 2 0 5 7 9 15 9 8 0 15 -2 15 -3z m-56 -42 c3 -5 -1
-9 -9 -9 -8 0 -12 4 -9 9 3 4 7 8 9 8 2 0 6 -4 9 -8z m-18 -47 c-1 -9 -5 -15
-9 -15 -4 0 -13 0 -19 0 -7 0 -5 5 5 11 9 6 14 15 11 21 -4 6 -3 8 4 5 5 -4 9
-14 8 -22z m-37 -76 c-5 -10 -14 -21 -19 -24 -6 -4 -8 -10 -5 -15 3 -4 -2 -11
-11 -14 -16 -6 -12 6 14 36 7 9 11 21 8 26 -3 5 1 9 9 9 10 0 11 -5 4 -18z
m-58 -143 c-5 -6 -7 -19 -6 -28 2 -10 -1 -20 -6 -24 -5 -3 -7 -9 -4 -14 3 -4
-2 -13 -9 -19 -12 -10 -14 -9 -11 6 2 10 4 19 5 21 2 1 4 11 5 22 1 11 4 23 5
28 1 4 2 10 2 13 -1 3 6 6 13 6 9 0 11 -4 6 -11z m-21 -131 c0 -12 -19 -12
-23 0 -4 9 -1 12 9 8 7 -3 14 -7 14 -8z m-13 -235 c1 -11 -2 -22 -6 -24 -6 -4
-7 26 -2 42 3 8 7 -1 8 -18z"/>
<path d="M734 2098 l-19 -23 23 19 c21 18 27 26 19 26 -2 0 -12 -10 -23 -22z"/>
<path d="M790 2119 c0 -5 5 -7 10 -4 6 3 10 8 10 11 0 2 -4 4 -10 4 -5 0 -10
-5 -10 -11z"/>
<path d="M1201 2031 c-6 -9 -9 -10 -5 -2 5 11 -2 12 -37 6 -24 -4 -48 -10 -54
-14 -12 -7 -18 -8 -46 -10 -11 0 -18 -4 -16 -8 3 -5 -6 -9 -19 -9 -29 -2 -139
-63 -178 -99 -15 -14 -39 -33 -52 -42 -23 -15 -35 -41 -12 -27 7 5 8 3 4 -5
-5 -7 -11 -10 -14 -7 -8 9 -52 -35 -46 -45 3 -5 -1 -9 -8 -9 -13 -1 -58 -63
-58 -81 0 -5 -5 -9 -11 -9 -6 0 -8 -7 -5 -16 3 -8 2 -13 -2 -10 -16 9 -78
-165 -68 -190 3 -8 2 -13 -3 -10 -13 9 -20 -67 -7 -83 8 -12 8 -13 -2 -7 -11
7 -13 -8 -10 -72 2 -44 6 -78 9 -77 3 2 6 -10 6 -28 2 -68 19 -131 33 -122 5
3 7 -4 5 -16 -3 -13 3 -28 13 -36 9 -8 11 -12 4 -8 -10 5 -10 1 0 -19 6 -14
15 -26 20 -26 4 0 7 -3 6 -7 -5 -14 42 -84 52 -78 5 3 7 0 4 -8 -4 -12 20 -42
35 -42 3 0 5 -4 3 -9 -1 -4 10 -19 25 -32 20 -17 29 -20 36 -11 6 8 7 7 4 -4
-6 -19 36 -65 50 -56 5 3 15 1 23 -5 12 -8 11 -9 -4 -4 -41 14 4 -20 77 -57
93 -49 231 -89 248 -73 9 8 10 8 5 -1 -11 -19 192 -16 223 4 13 8 20 10 17 4
-4 -6 -2 -11 3 -11 6 0 11 5 11 11 0 5 4 7 10 4 12 -7 90 15 90 26 0 5 6 6 14
3 7 -3 20 2 29 10 8 8 16 13 19 11 2 -2 26 9 53 25 28 16 46 30 40 30 -5 0 6
8 25 18 20 10 34 24 34 34 -1 9 4 14 10 12 15 -6 136 117 136 138 0 4 6 13 13
20 33 33 89 174 103 261 10 54 14 227 6 227 -4 0 -8 17 -8 38 -2 58 -20 122
-34 122 -5 0 -7 6 -4 14 3 8 0 17 -5 21 -6 3 -9 10 -7 14 7 11 -58 116 -71
116 -6 0 -15 4 -20 9 -5 5 -3 6 5 2 19 -11 14 4 -14 41 -14 18 -30 31 -35 27
-5 -3 -9 -2 -8 3 4 15 -13 43 -22 37 -5 -3 -9 1 -9 8 0 7 -17 24 -37 38 -21
14 -46 33 -56 43 -10 10 -25 16 -33 13 -8 -3 -13 0 -11 7 1 7 -6 11 -15 11
-10 -1 -15 2 -12 7 5 8 -3 11 -22 8 -4 0 -10 5 -14 11 -4 7 -19 13 -33 13 -14
1 -23 6 -19 11 3 5 -2 7 -11 3 -10 -3 -17 -3 -17 2 0 5 -17 12 -37 15 -21 4
-51 9 -67 12 -22 5 -27 3 -22 -7 5 -9 3 -9 -6 1 -17 20 -53 26 -43 8 6 -10 5
-11 -6 0 -19 17 -32 15 -25 -5 5 -16 4 -16 -6 -3 -18 21 -102 22 -117 1z m64
-10 c3 -5 2 -12 -3 -15 -5 -3 -9 1 -9 9 0 17 3 19 12 6z m43 -23 c-2 -6 12
-12 32 -14 136 -10 265 -51 333 -104 15 -12 27 -19 27 -15 0 3 10 -4 23 -17
29 -31 63 -56 54 -41 -4 6 -3 14 2 18 6 3 8 -4 6 -15 -4 -21 51 -88 68 -82 5
1 6 -2 3 -7 -3 -5 2 -19 12 -32 38 -52 82 -141 82 -164 0 -9 4 -14 9 -11 5 4
7 -4 3 -16 -3 -13 -1 -19 5 -15 6 4 8 -4 5 -20 -3 -15 -1 -24 5 -20 5 3 10 0
10 -8 0 -8 -4 -12 -8 -10 -4 3 -3 -11 1 -29 4 -19 7 -64 6 -100 -1 -38 3 -66
9 -66 6 0 6 -3 0 -8 -6 -4 -16 -36 -24 -72 -7 -36 -21 -84 -31 -107 -10 -24
-17 -43 -14 -43 3 0 -2 -7 -11 -16 -9 -9 -14 -23 -11 -30 3 -7 0 -16 -6 -20
-7 -5 -8 -2 -4 7 4 8 0 5 -8 -6 -9 -11 -14 -25 -11 -33 2 -7 1 -11 -4 -8 -4 3
-18 -6 -29 -19 -12 -14 -19 -25 -14 -25 4 0 -1 -5 -11 -11 -9 -6 -14 -15 -11
-21 5 -7 2 -9 -9 -5 -19 7 -29 -16 -14 -34 10 -11 9 -11 -4 -1 -12 9 -22 6
-50 -17 -45 -38 -133 -89 -164 -97 -14 -3 -23 -9 -21 -13 2 -3 -6 -7 -17 -8
-43 -4 -62 -11 -60 -20 1 -5 -4 -10 -12 -10 -8 0 -12 3 -10 7 2 4 -7 5 -20 2
-14 -2 -22 -9 -18 -15 4 -6 1 -7 -8 -2 -19 13 -159 12 -159 0 0 -7 -3 -7 -8 0
-8 11 -16 13 -70 19 -41 4 -51 7 -134 43 -31 14 -61 22 -67 19 -7 -4 -8 -1 -5
8 4 10 1 16 -8 16 -8 0 -43 25 -78 55 -36 30 -68 55 -72 55 -5 0 -8 7 -8 16 0
10 -5 14 -16 10 -9 -3 -12 -2 -9 4 7 11 -39 72 -49 64 -3 -2 -4 -1 -2 2 5 6
-41 103 -53 114 -4 3 -7 14 -9 25 -2 11 -6 27 -9 35 -3 8 -8 24 -10 34 -2 11
-9 26 -16 35 -10 12 -9 13 2 6 10 -6 12 -4 6 4 -4 7 -8 59 -10 116 -2 80 2
121 17 177 11 40 21 80 22 88 0 8 7 19 14 23 16 10 5 30 -11 21 -7 -4 -8 -3
-4 2 5 5 13 9 19 9 6 0 18 14 27 30 28 52 55 88 84 117 16 15 26 32 22 38 -3
6 -3 10 2 9 21 -4 24 2 12 19 -12 15 -12 16 2 5 13 -11 20 -9 40 8 13 11 36
28 52 37 15 9 27 20 27 25 0 4 -4 6 -9 2 -5 -3 -12 -1 -15 4 -7 10 19 9 30 -1
3 -4 24 4 45 18 21 13 39 21 39 18 0 -4 6 -2 13 4 6 5 38 15 69 22 51 12 56
15 45 29 -10 14 -10 14 4 3 20 -15 114 -11 131 6 15 15 19 15 16 0z m119 -3
c0 -8 -4 -12 -9 -9 -5 3 -6 10 -3 15 9 13 12 11 12 -6z m277 -93 c3 -5 -1 -9
-9 -9 -8 0 -12 4 -9 9 3 4 7 8 9 8 2 0 6 -4 9 -8z m43 -37 c0 -8 -4 -12 -9 -9
-5 3 -6 10 -3 15 9 13 12 11 12 -6z m-1053 -203 c3 -5 -1 -9 -9 -9 -8 0 -12 4
-9 9 3 4 7 8 9 8 2 0 6 -4 9 -8z m-88 -244 c3 -4 -1 -5 -10 -4 -8 1 -18 5 -22
8 -3 4 1 5 10 4 8 -1 18 -5 22 -8z m1419 -77 c3 -5 2 -12 -3 -15 -5 -3 -9 1
-9 9 0 17 3 19 12 6z m-1439 -57 c1 -9 0 -13 -4 -10 -3 4 -7 14 -8 22 -1 9 0
13 4 10 3 -4 7 -14 8 -22z m1444 16 c0 -5 -2 -10 -4 -10 -3 0 -8 5 -11 10 -3
6 -1 10 4 10 6 0 11 -4 11 -10z m-3 -75 c0 -8 -4 -12 -9 -9 -5 3 -6 10 -3 15
9 13 12 11 12 -6z m-20 -70 c0 -8 -4 -12 -9 -9 -5 3 -6 10 -3 15 9 13 12 11
12 -6z m-7 -91 c0 -8 -19 -13 -24 -6 -3 5 1 9 9 9 8 0 15 -2 15 -3z m-93 -169
c0 -8 -4 -12 -9 -9 -5 3 -6 10 -3 15 9 13 12 11 12 -6z m-1157 -35 c0 -5 -2
-10 -4 -10 -3 0 -8 5 -11 10 -3 6 -1 10 4 10 6 0 11 -4 11 -10z m935 -188 c-3
-3 -11 0 -18 7 -9 10 -8 11 6 5 10 -3 15 -9 12 -12z m-618 -57 c0 -8 -4 -12
-9 -9 -5 3 -6 10 -3 15 9 13 12 11 12 -6z m479 3 c3 -4 -1 -5 -10 -4 -8 1 -18
5 -22 8 -3 4 1 5 10 4 8 -1 18 -5 22 -8z m-281 -37 c3 -5 2 -12 -3 -15 -5 -3
-9 1 -9 9 0 17 3 19 12 6z m141 -3 c3 -4 -1 -5 -10 -4 -8 1 -18 5 -22 8 -3 4
1 5 10 4 8 -1 18 -5 22 -8z"/>
<path d="M1235 1809 c-142 -14 -257 -81 -349 -203 -120 -159 -134 -388 -34
-564 36 -63 123 -152 187 -189 157 -92 369 -91 524 1 248 146 328 485 172 722
-114 174 -286 255 -500 233z m200 -150 c270 -101 336 -458 119 -649 -139 -121
-348 -126 -491 -11 -173 139 -197 374 -56 548 42 52 80 80 152 109 76 32 197
33 276 3z"/>
<path d="M1267 1509 c-182 -20 -246 -258 -102 -376 145 -120 363 -4 349 185
-6 84 -76 170 -153 189 -20 5 -62 6 -94 2z m80 -197 c8 -32 -7 -56 -38 -60
-48 -5 -74 43 -41 76 27 27 70 18 79 -16z"/>
<path d="M2183 1656 c-4 -5 3 -7 16 -3 13 3 20 3 17 0 -3 -4 0 -13 6 -22 10
-13 10 -14 -2 -3 -20 17 -35 15 -20 -3 7 -9 18 -14 25 -11 6 2 12 -2 12 -10 0
-8 -6 -13 -13 -10 -7 3 -11 -2 -9 -12 2 -9 4 -17 5 -17 2 0 10 -34 14 -60 2
-11 5 -20 6 -20 1 0 3 -11 4 -25 0 -14 5 -31 9 -37 5 -8 4 -13 -3 -13 -6 0 -8
-5 -3 -12 8 -15 11 -198 3 -203 -3 -2 -5 -26 -4 -54 1 -35 -2 -48 -10 -44 -6
3 -8 3 -4 -1 4 -5 2 -20 -4 -35 -9 -24 -15 -46 -22 -78 -1 -7 -5 -15 -9 -19
-4 -4 1 -13 11 -21 9 -8 11 -12 5 -8 -9 4 -11 0 -7 -12 6 -16 5 -16 -8 1 -14
18 -15 18 -23 -5 -4 -13 -6 -30 -6 -36 1 -7 -3 -13 -9 -13 -5 0 -10 -9 -10
-19 0 -10 -7 -22 -16 -25 -9 -4 -14 -9 -11 -13 4 -3 0 -11 -7 -17 -8 -6 -24
-29 -35 -51 -12 -22 -24 -40 -29 -39 -4 0 -16 -11 -27 -25 -32 -42 -125 -128
-131 -122 -3 3 -2 -2 1 -11 5 -12 2 -16 -12 -14 -22 4 -45 -13 -36 -27 4 -6 0
-8 -9 -4 -9 3 -23 -2 -33 -13 -10 -11 -21 -17 -25 -15 -4 3 -11 -2 -14 -11 -4
-9 -9 -14 -13 -10 -3 3 -15 -2 -26 -11 -10 -10 -20 -16 -21 -15 -3 8 -63 -24
-79 -42 -16 -18 -18 -18 -13 -3 4 11 2 16 -5 12 -6 -4 -8 -13 -5 -20 5 -14
-18 -14 -31 0 -4 4 -2 5 5 1 6 -4 12 -2 12 3 0 13 -13 14 -24 4 -4 -5 -12 -9
-17 -9 -5 -1 -13 -2 -19 -3 -5 0 -10 -5 -10 -10 0 -6 9 -8 20 -6 11 2 18 0 15
-5 -7 -12 -35 -6 -46 11 -5 8 -9 9 -9 3 0 -7 -12 -10 -30 -8 -24 3 -28 1 -23
-14 6 -14 4 -15 -8 -5 -15 12 -76 13 -96 0 -6 -4 -13 -1 -16 5 -3 10 -7 10
-20 -1 -10 -7 -17 -9 -17 -5 0 5 -25 10 -55 10 -30 1 -55 -3 -55 -7 0 -5 6 -6
14 -3 8 3 16 1 20 -4 6 -10 -24 -9 -42 2 -7 4 -10 11 -7 16 3 4 -3 7 -12 5
-10 -1 -22 0 -28 3 -15 9 -45 10 -40 1 3 -4 -2 -9 -10 -12 -9 -4 -12 -1 -8 9
5 12 -13 19 -39 15 -5 0 -8 4 -8 10 0 6 -6 9 -14 6 -7 -3 -31 5 -53 17 -36 21
-41 22 -52 7 -11 -14 -11 -14 -7 1 6 19 -3 27 -36 33 -12 3 -24 8 -27 13 -24
34 -81 47 -81 18 0 -11 54 -47 78 -52 8 -1 22 -10 31 -18 10 -9 21 -13 24 -9
4 3 7 1 7 -6 0 -7 6 -11 14 -8 7 3 19 0 25 -6 7 -7 16 -13 21 -13 6 -1 12 -3
15 -4 3 -1 10 -4 15 -5 6 -1 11 -3 13 -5 5 -4 44 -11 69 -12 15 -1 25 -4 23
-8 -3 -4 11 -6 30 -4 20 1 33 -1 31 -5 -3 -4 5 -8 17 -9 12 0 37 -3 55 -5 21
-3 32 0 32 8 0 7 7 16 16 19 14 5 15 4 4 -9 -7 -8 -11 -15 -9 -16 2 -1 28 -2
57 -4 44 -2 52 1 52 15 0 13 8 17 29 16 16 0 27 -4 25 -8 -2 -4 -13 -5 -24 -3
-11 2 -20 0 -20 -5 0 -5 22 -8 49 -7 27 1 48 4 46 8 -2 3 11 6 28 7 40 2 59 6
73 14 6 4 21 9 35 12 38 7 59 17 59 28 0 6 -7 5 -15 -2 -9 -7 -18 -10 -22 -6
-3 3 -1 6 6 6 7 0 9 5 5 13 -4 6 -4 9 1 5 4 -4 14 -3 22 4 7 6 16 8 20 4 3 -3
1 -6 -6 -6 -7 0 -9 -5 -6 -10 7 -12 26 -14 24 -2 -3 18 2 26 10 14 7 -12 12
-12 30 0 12 7 19 18 17 25 -3 7 0 15 6 19 6 4 8 3 4 -4 -3 -6 -1 -14 5 -18 9
-5 10 0 6 17 -6 23 -5 23 8 5 8 -11 15 -14 15 -8 0 7 6 11 13 9 6 -1 11 4 10
10 -2 7 6 13 17 13 11 0 20 5 20 11 0 5 5 7 10 4 6 -3 13 1 16 9 3 9 10 13 15
10 5 -3 6 2 3 11 -4 9 -3 15 2 14 22 -4 34 2 34 17 0 8 4 13 8 10 5 -3 30 15
56 40 26 24 44 44 39 44 -4 0 -3 4 3 8 16 11 91 97 77 88 -15 -9 -17 3 -3 24
9 13 10 13 10 0 1 -8 10 3 22 25 11 22 27 48 35 57 8 9 12 21 9 27 -3 5 -3 11
1 14 5 2 3 3 -3 1 -6 -1 -11 4 -11 11 0 7 6 11 13 8 16 -6 37 33 27 50 -11 18
-13 38 -2 31 5 -3 7 -10 4 -15 -4 -5 -1 -9 4 -9 6 0 11 5 11 10 0 17 1 19 15
46 7 14 11 37 9 50 -2 13 0 24 6 24 5 0 10 5 10 11 0 5 -4 8 -9 4 -5 -3 -13 0
-17 6 -4 8 -3 9 4 5 6 -3 16 3 22 14 6 11 8 20 5 20 -3 0 -1 9 5 20 9 16 8 18
-5 14 -8 -3 -13 -10 -10 -14 3 -5 1 -11 -4 -14 -15 -10 -6 22 13 43 18 20 7
39 -16 25 -9 -5 -9 -3 1 9 7 9 16 15 20 13 6 -4 5 110 -1 152 -3 20 -17 13
-15 -8 1 -11 4 -20 7 -20 3 0 6 -11 6 -25 0 -26 -8 -25 -14 3 -9 43 -9 81 0
93 8 11 9 10 4 -3 -3 -10 -1 -18 4 -18 6 0 10 9 10 20 0 11 -4 20 -9 20 -5 0
-7 14 -6 31 2 19 -3 33 -11 36 -8 3 -14 9 -14 15 0 5 5 6 12 2 7 -4 8 -3 4 5
-4 6 -10 24 -12 39 -3 15 -9 31 -15 37 -5 5 -9 17 -9 26 0 19 -37 23 -47 5z
m62 -94 c-3 -3 -11 0 -18 7 -9 10 -8 11 6 5 10 -3 15 -9 12 -12z m25 -47 c0
-2 -6 -5 -13 -8 -8 -3 -14 1 -14 8 0 7 6 11 14 8 7 -3 13 -6 13 -8z m-4 -40
c0 -14 -4 -25 -8 -25 -6 0 -5 25 1 48 3 10 7 -2 7 -23z m20 -180 c1 -8 -1 -13
-6 -10 -5 3 -10 -1 -13 -7 -2 -7 -4 1 -3 19 1 32 17 30 22 -2z m4 -29 c0 -2
-8 -10 -17 -17 -16 -13 -17 -12 -4 4 13 16 21 21 21 13z m0 -49 c0 -2 -10 -12
-22 -23 l-23 -19 19 23 c18 21 26 27 26 19z m-16 -79 c-3 -4 -9 -8 -15 -8 -5
0 -9 4 -9 8 0 5 7 9 15 9 8 0 12 -4 9 -9z m-18 -84 c-1 -9 -9 -20 -17 -25 -12
-7 -12 -9 1 -9 12 0 13 -2 1 -9 -8 -5 -10 -14 -6 -21 5 -9 4 -11 -3 -6 -14 8
-10 45 5 54 6 4 9 15 7 25 -1 9 1 15 6 12 5 -3 7 -12 6 -21z m-66 -193 c0 -5
-6 -14 -14 -20 -12 -10 -14 -9 -11 6 2 10 4 19 4 21 2 6 21 1 21 -7z m-42 -67
c-6 -13 -14 -21 -19 -18 -4 2 -12 -4 -18 -13 -12 -20 -14 -13 -5 11 3 9 13 16
21 16 9 0 13 6 10 13 -3 8 1 14 8 14 10 0 11 -6 3 -23z m-77 -108 c-23 -23
-38 -46 -34 -50 4 -4 -1 -4 -11 0 -12 5 -17 4 -13 -3 3 -5 -9 -25 -28 -43 -19
-19 -35 -28 -35 -21 0 11 -3 11 -15 1 -8 -7 -15 -10 -15 -7 0 2 26 26 58 52
31 26 56 50 56 54 -1 3 5 15 12 26 8 11 14 14 14 7 0 -10 3 -10 14 0 8 7 14
15 14 18 -1 16 3 20 13 14 7 -4 -5 -22 -30 -48z m-181 -168 c0 -4 -5 -8 -11
-8 -5 0 -7 -5 -3 -12 4 -6 3 -8 -4 -4 -6 3 -14 1 -17 -5 -4 -5 -13 -8 -21 -5
-12 5 -18 -4 -16 -25 1 -3 -6 -6 -14 -6 -7 0 -14 2 -14 4 0 11 35 38 49 38 9
0 17 6 17 13 2 18 3 19 19 19 8 0 15 -4 15 -9z m-1116 -40 c-5 -7 -2 -9 8 -5
17 6 53 -25 42 -36 -9 -8 -64 34 -58 45 3 4 7 8 10 8 3 0 2 -5 -2 -12z m972
-40 c-4 -27 -17 -39 -30 -29 -7 6 -17 7 -21 3 -5 -4 -5 -1 -1 6 4 7 11 10 16
7 4 -3 13 2 20 10 15 18 19 19 16 3z m-858 -13 c3 -3 0 -5 -7 -5 -7 0 -9 -4
-6 -10 10 -17 -1 -11 -20 10 -17 19 -17 19 5 15 13 -2 25 -7 28 -10z m42 -26
c0 -5 4 -8 9 -5 5 3 14 -1 21 -8 6 -8 20 -13 30 -11 11 2 22 -1 25 -6 4 -5 10
-7 15 -4 5 3 11 1 14 -3 4 -7 -36 -9 -51 -3 -2 1 -6 1 -10 2 -5 0 -14 5 -20
11 -7 6 -13 7 -13 3 0 -5 -8 -1 -18 8 -10 10 -22 14 -27 10 -4 -5 -5 -2 -1 5
9 15 26 16 26 1z m645 -38 c3 -5 2 -12 -3 -15 -5 -3 -9 1 -9 9 0 17 3 19 12 6z
m-414 -28 c13 -16 12 -17 -3 -4 -10 7 -18 15 -18 17 0 8 8 3 21 -13z m349 4
c0 -5 -7 -6 -16 -3 -9 4 -24 1 -33 -6 -14 -11 -14 -11 -3 4 14 17 52 21 52 5z
m-275 -6 c3 -5 2 -12 -3 -15 -5 -3 -9 1 -9 9 0 17 3 19 12 6z m110 -1 c8 6 12
5 12 -3 0 -8 -15 -13 -43 -13 -23 0 -40 4 -38 8 3 5 9 6 14 3 5 -3 12 0 15 6
5 8 10 8 18 0 7 -7 15 -7 22 -1z"/>
<path d="M2039 673 c-13 -16 -12 -17 4 -4 16 13 21 21 13 21 -2 0 -10 -8 -17
-17z"/>
<path d="M1977 605 c-15 -14 -24 -25 -19 -25 5 0 19 11 32 25 30 32 23 32 -13
0z"/>
<path d="M790 466 c0 -2 8 -10 18 -17 15 -13 16 -12 3 4 -13 16 -21 21 -21 13z"/>
<path d="M340 1171 c-8 -6 -18 -7 -22 -5 -7 4 -4 -35 3 -43 1 -2 2 -11 3 -20
1 -10 4 -22 7 -28 4 -5 5 -18 4 -28 -2 -10 1 -14 8 -10 6 4 8 0 4 -10 -3 -9
-2 -19 4 -22 5 -4 7 -10 4 -15 -3 -5 2 -24 12 -42 9 -18 16 -39 15 -45 -2 -7
1 -13 6 -13 5 0 9 -6 9 -13 0 -8 15 -36 34 -63 18 -27 33 -51 32 -54 0 -3 10
-18 23 -35 13 -16 33 -42 45 -58 11 -15 26 -24 32 -20 6 4 8 0 4 -10 -4 -10
-2 -16 5 -14 7 1 12 -4 13 -10 0 -7 3 -13 8 -13 12 1 35 -24 30 -32 -2 -4 4
-5 14 -1 10 3 15 2 10 -2 -4 -5 0 -17 9 -27 14 -14 20 -16 32 -6 11 10 17 9
27 -5 6 -9 14 -14 17 -11 3 2 3 -8 1 -23 -5 -27 -5 -27 11 -8 15 19 14 21 -10
40 -15 11 -40 32 -56 48 -17 15 -34 27 -40 27 -5 0 -7 4 -3 10 3 5 -8 16 -26
25 -17 9 -28 19 -25 22 6 6 -18 33 -30 33 -3 0 -1 -6 5 -14 9 -11 9 -16 0 -22
-8 -5 -9 -3 -4 6 6 9 4 11 -5 5 -9 -6 -11 -4 -5 5 6 9 4 11 -6 5 -8 -5 -5 2 6
14 13 16 15 21 5 19 -8 -2 -14 2 -15 7 -1 23 -18 36 -39 31 -19 -5 -20 -4 -3
8 16 12 16 14 2 20 -9 3 -13 10 -10 16 3 5 2 10 -2 10 -9 0 -37 59 -34 73 0 4
-4 7 -11 7 -6 0 -8 3 -5 7 9 8 -23 44 -33 38 -4 -3 -10 2 -13 10 -4 9 -1 12 9
8 7 -3 14 0 14 7 0 6 -5 8 -11 5 -6 -4 -9 0 -7 11 2 13 -3 19 -15 18 -17 -2
-17 0 -3 15 19 20 20 31 5 31 -5 0 -7 -5 -3 -12 4 -7 3 -8 -5 -4 -9 6 -9 11 0
22 7 9 8 14 1 14 -5 0 -8 9 -5 20 3 11 0 20 -6 20 -7 0 -10 -10 -7 -25 3 -15
1 -23 -5 -20 -5 4 -7 10 -4 15 3 5 0 12 -6 16 -8 4 -4 11 12 20 13 7 19 13 12
14 -8 0 -11 13 -9 35 2 19 3 35 2 35 0 0 -8 -4 -16 -9z m5 -28 c-2 -10 -4 -19
-4 -21 -1 -2 -6 0 -11 3 -8 5 -7 11 1 21 15 18 18 18 14 -3z m38 -178 c-3 -9
-8 -14 -10 -11 -3 3 -2 9 2 15 9 16 15 13 8 -4z m42 -73 c-2 -3 5 -20 16 -39
11 -18 17 -33 14 -33 -4 0 -2 -7 5 -15 7 -9 8 -15 2 -15 -12 0 -26 30 -23 49
1 7 -2 10 -8 7 -5 -4 -15 3 -21 14 -6 11 -8 20 -4 20 3 0 1 6 -5 13 -14 18 -2
30 16 15 7 -6 11 -13 8 -16z m59 -133 c-3 -5 -10 -7 -15 -3 -5 3 -7 10 -3 15
3 5 10 7 15 3 5 -3 7 -10 3 -15z m43 -49 c2 -13 2 -22 1 -19 -2 2 -11 14 -21
26 -18 20 -18 21 -1 19 9 -2 19 -13 21 -26z m83 -92 c0 -5 5 -6 10 -3 6 4 9 2
8 -3 -2 -5 12 -21 30 -36 17 -15 29 -32 26 -37 -3 -6 -11 -5 -20 2 -7 6 -12
15 -9 19 6 10 -46 46 -60 41 -5 -1 -7 1 -3 5 4 4 3 13 -4 21 -8 11 -7 12 6 7
9 -3 16 -10 16 -16z"/>
<path d="M690 524 c0 -3 7 -12 15 -20 16 -17 18 -14 9 10 -6 15 -24 23 -24 10z"/>
</g>
</svg>
